<svg xmlns="http://www.w3.org/2000/svg" viewBox="0 0 144 144"><g data-name="Layer 2"><path d="M133.34 0H10.63A10.51 10.51 0 0 0 0 10.38v123.23A10.52 10.52 0 0 0 10.63 144h122.71A10.54 10.54 0 0 0 144 133.61V10.38A10.53 10.53 0 0 0 133.34 0zM42.71 122.71H21.35V54h21.36zM32 44.59a12.38 12.38 0 1 1 12.41-12.38A12.38 12.38 0 0 1 32 44.59zm90.68 78.12h-21.32V89.29c0-8-.14-18.22-11.1-18.22-11.11 0-12.81 8.68-12.81 17.64v34H56.11V54h20.48v9.39h.29c2.85-5.41 9.82-11.1 20.21-11.1 21.62 0 25.62 14.23 25.62 32.73z" fill="#231f20" data-name="Layer 1"/></g></svg>